<svg viewBox="0 0 480 640" xmlns="http://www.w3.org/2000/svg" font-family="system-ui, -apple-system, sans-serif">
  <defs>
    <clipPath id="round2"><rect x="0" y="0" width="480" height="640" rx="12"/></clipPath>
    <linearGradient id="art" x1="0" y1="0" x2="1" y2="1">
      <stop offset="0%" stop-color="#3a2f10"/>
      <stop offset="100%" stop-color="#181410"/>
    </linearGradient>
    <linearGradient id="eq" x1="0" y1="0" x2="1" y2="0">
      <stop offset="0%" stop-color="#4a9eff"/>
      <stop offset="45%" stop-color="#1db954"/>
      <stop offset="100%" stop-color="#e0524a"/>
    </linearGradient>
  </defs>
  <g clip-path="url(#round2)">
    <rect width="480" height="640" fill="#111114"/>

    <text x="24" y="34" font-size="12" font-weight="700" letter-spacing="1" fill="#535353">NOW PLAYING</text>
    <text x="452" y="36" font-size="16" text-anchor="middle" fill="#535353">✕</text>

    <rect x="24" y="52" width="432" height="432" rx="12" fill="url(#art)"/>
    <text x="240" y="280" font-size="72" text-anchor="middle" fill="#ffffff30">🎵</text>
    <text x="240" y="450" font-size="14" text-anchor="middle" fill="#d4af5a" opacity="0.8" letter-spacing="2">KENDRICK LAMAR</text>

    <text x="24" y="516" font-size="18" font-weight="700" fill="#ffffff">All The Stars</text>
    <text x="24" y="538" font-size="13" fill="#b3b3b3">Kendrick Lamar</text>
    <text x="24" y="556" font-size="12" fill="#535353">All The Stars</text>

    <!-- equalizer -->
    <g>
      <rect x="24" y="572" width="432" height="60" fill="none"/>
      <g fill="url(#eq)">
        <rect x="24" y="602" width="6" height="30"/>
        <rect x="34" y="590" width="6" height="42"/>
        <rect x="44" y="596" width="6" height="36"/>
        <rect x="54" y="580" width="6" height="52"/>
        <rect x="64" y="600" width="6" height="32"/>
        <rect x="74" y="592" width="6" height="40"/>
        <rect x="84" y="586" width="6" height="46"/>
        <rect x="94" y="604" width="6" height="28"/>
        <rect x="104" y="596" width="6" height="36"/>
        <rect x="114" y="588" width="6" height="44"/>
        <rect x="124" y="600" width="6" height="32"/>
        <rect x="134" y="592" width="6" height="40"/>
        <rect x="144" y="598" width="6" height="34"/>
        <rect x="154" y="584" width="6" height="48"/>
        <rect x="164" y="602" width="6" height="30"/>
        <rect x="174" y="594" width="6" height="38"/>
        <rect x="184" y="590" width="6" height="42"/>
        <rect x="194" y="606" width="6" height="26"/>
        <rect x="204" y="596" width="6" height="36"/>
        <rect x="214" y="600" width="6" height="32"/>
        <rect x="224" y="592" width="6" height="40"/>
        <rect x="234" y="604" width="6" height="28"/>
        <rect x="244" y="598" width="6" height="34"/>
        <rect x="254" y="590" width="6" height="42"/>
        <rect x="264" y="608" width="6" height="24"/>
        <rect x="274" y="600" width="6" height="32"/>
        <rect x="284" y="596" width="6" height="36"/>
        <rect x="294" y="606" width="6" height="26"/>
        <rect x="304" y="602" width="6" height="30"/>
        <rect x="314" y="610" width="6" height="22"/>
        <rect x="324" y="604" width="6" height="28"/>
        <rect x="334" y="612" width="6" height="20"/>
        <rect x="344" y="608" width="6" height="24"/>
        <rect x="354" y="614" width="6" height="18"/>
        <rect x="364" y="610" width="6" height="22"/>
        <rect x="374" y="616" width="6" height="16"/>
        <rect x="384" y="612" width="6" height="20"/>
        <rect x="394" y="618" width="6" height="14"/>
        <rect x="404" y="614" width="6" height="18"/>
        <rect x="414" y="620" width="6" height="12"/>
        <rect x="424" y="616" width="6" height="16"/>
        <rect x="434" y="622" width="6" height="10"/>
        <rect x="444" y="618" width="6" height="14"/>
      </g>
    </g>
  </g>
</svg>
